<svg xmlns="http://www.w3.org/2000/svg" xmlns:xlink="http://www.w3.org/1999/xlink" width="1080" zoomAndPan="magnify" viewBox="0 0 810 809.999993" height="1080" preserveAspectRatio="xMidYMid meet" version="1.0"><defs><clipPath id="4808b07fcf"><path d="M 28.453125 28.453125 L 781.453125 28.453125 L 781.453125 781.453125 L 28.453125 781.453125 Z M 28.453125 28.453125 " clip-rule="nonzero"/></clipPath></defs><g clip-path="url(#4808b07fcf)"><path fill="#000a61" d="M 404.953125 28.453125 C 612.890625 28.453125 781.453125 197.019531 781.453125 404.953125 C 781.453125 612.890625 612.890625 781.453125 404.953125 781.453125 C 197.019531 781.453125 28.453125 612.890625 28.453125 404.953125 C 28.453125 197.019531 197.019531 28.453125 404.953125 28.453125 " fill-opacity="1" fill-rule="nonzero"/></g><path fill="#efb74a" d="M 404.953125 227.082031 C 503.191406 227.082031 582.828125 306.71875 582.828125 404.953125 C 582.828125 503.191406 503.191406 582.828125 404.953125 582.828125 C 306.71875 582.828125 227.082031 503.191406 227.082031 404.953125 C 227.082031 306.71875 306.71875 227.082031 404.953125 227.082031 " fill-opacity="1" fill-rule="nonzero"/><path fill="#efb74a" d="M 442.902344 602.394531 L 404.953125 689.554688 L 367.003906 602.394531 C 379.460938 604.765625 391.910156 605.953125 404.953125 605.953125 C 418 605.953125 431.042969 604.765625 442.902344 602.394531 " fill-opacity="1" fill-rule="nonzero"/><path fill="#efb74a" d="M 442.902344 207.515625 C 430.449219 205.140625 418 203.953125 404.953125 203.953125 C 391.910156 203.953125 378.863281 205.140625 367.003906 207.515625 L 404.953125 120.355469 L 442.902344 207.515625 " fill-opacity="1" fill-rule="nonzero"/><path fill="#efb74a" d="M 203.953125 404.953125 C 203.953125 418 205.140625 431.042969 207.515625 443.492188 L 120.355469 404.953125 L 207.515625 367.003906 C 205.140625 378.863281 203.953125 391.910156 203.953125 404.953125 " fill-opacity="1" fill-rule="nonzero"/><path fill="#efb74a" d="M 602.394531 443.492188 C 604.765625 431.042969 605.953125 418.589844 605.953125 404.953125 C 605.953125 391.910156 604.765625 378.863281 602.394531 367.003906 L 689.550781 404.953125 L 602.394531 443.492188 " fill-opacity="1" fill-rule="nonzero"/><path fill="#efb74a" d="M 292.300781 571.5625 L 203.363281 606.542969 L 237.75 517.609375 C 252.574219 538.949219 270.957031 557.335938 292.300781 571.5625 " fill-opacity="1" fill-rule="nonzero"/><path fill="#efb74a" d="M 606.542969 203.363281 L 572.15625 292.300781 C 557.925781 270.957031 539.546875 252.574219 518.199219 238.347656 L 606.542969 203.363281 " fill-opacity="1" fill-rule="nonzero"/><path fill="#efb74a" d="M 292.300781 238.347656 C 270.957031 252.574219 252.574219 270.957031 238.347656 292.300781 L 203.363281 203.363281 L 292.300781 238.347656 " fill-opacity="1" fill-rule="nonzero"/><path fill="#efb74a" d="M 606.542969 606.542969 L 517.609375 572.15625 C 538.949219 557.925781 557.335938 539.546875 571.5625 518.199219 L 606.542969 606.542969 " fill-opacity="1" fill-rule="nonzero"/><path fill="#ffffff" d="M 468.988281 396.0625 L 417.402344 396.0625 L 433.414062 299.417969 L 340.921875 413.847656 L 392.503906 413.847656 L 376.496094 510.492188 L 468.988281 396.0625 " fill-opacity="1" fill-rule="nonzero"/></svg>